<svg width="32" height="32" viewBox="0 0 64 64" xmlns="http://www.w3.org/2000/svg">
  <defs>
    <!-- Updated gradients matching typekro-crow.svg -->
    <linearGradient id="bodyGradient" x1="0%" y1="0%" x2="100%" y2="100%">
      <stop offset="0%" style="stop-color:#1E3A8A;stop-opacity:1" />
      <stop offset="50%" style="stop-color:#1E40AF;stop-opacity:1" />
      <stop offset="100%" style="stop-color:#312E81;stop-opacity:1" />
    </linearGradient>
    
    <linearGradient id="wingGradient" x1="0%" y1="0%" x2="100%" y2="100%">
      <stop offset="0%" style="stop-color:#10B981;stop-opacity:1" />
      <stop offset="50%" style="stop-color:#059669;stop-opacity:1" />
      <stop offset="100%" style="stop-color:#047857;stop-opacity:1" />
    </linearGradient>
    
    <linearGradient id="beakGradient" x1="0%" y1="0%" x2="100%" y2="100%">
      <stop offset="0%" style="stop-color:#374151;stop-opacity:1" />
      <stop offset="100%" style="stop-color:#111827;stop-opacity:1" />
    </linearGradient>
    
    <radialGradient id="eyeGradient" cx="50%" cy="50%" r="50%">
      <stop offset="0%" style="stop-color:#06B6D4;stop-opacity:1" />
      <stop offset="70%" style="stop-color:#0891B2;stop-opacity:1" />
      <stop offset="100%" style="stop-color:#0E7490;stop-opacity:1" />
    </radialGradient>
  </defs>
  
  <!-- Simplified crow for favicon - centered and scaled for 32x32 -->
  <!-- Left wing -->
  <ellipse cx="18" cy="25" rx="16" ry="8" fill="url(#wingGradient)" transform="rotate(-12 18 25)"/>
  
  <!-- Right wing -->
  <ellipse cx="46" cy="25" rx="16" ry="8" fill="url(#wingGradient)" transform="rotate(12 46 25)"/>
  
  <!-- Crow head -->
  <circle cx="32" cy="20" r="8" fill="url(#bodyGradient)"/>
  
  <!-- Crow body -->
  <ellipse cx="32" cy="35" rx="6" ry="14" fill="url(#bodyGradient)"/>
  
  <!-- Neck connecting head to body -->
  <ellipse cx="32" cy="27" rx="4" ry="4" fill="url(#bodyGradient)"/>
  
  <!-- Crow beak -->
  <polygon points="26,18 19,20 26,22" fill="url(#beakGradient)"/>
  
  <!-- Crow eye -->
  <circle cx="29" cy="18" r="1.8" fill="url(#eyeGradient)"/>
  <circle cx="29" cy="18" r="1.1" fill="#111827"/>
  <circle cx="29.4" cy="17.6" r="0.5" fill="#FFFFFF"/>
  
  <!-- Tail feathers -->
  <ellipse cx="32" cy="47" rx="4" ry="6" fill="url(#wingGradient)"/>
</svg>