<svg width="64" height="64" viewBox="0 0 64 80" xmlns="http://www.w3.org/2000/svg">
  <defs>
    <!-- Gradients for navy blue/green crow -->
    <linearGradient id="bodyGradient" x1="0%" y1="0%" x2="100%" y2="100%">
      <stop offset="0%" style="stop-color:#1E3A8A;stop-opacity:1" />
      <stop offset="50%" style="stop-color:#1E40AF;stop-opacity:1" />
      <stop offset="100%" style="stop-color:#312E81;stop-opacity:1" />
    </linearGradient>
    
    <linearGradient id="wingGradient" x1="0%" y1="0%" x2="100%" y2="100%">
      <stop offset="0%" style="stop-color:#10B981;stop-opacity:1" />
      <stop offset="50%" style="stop-color:#059669;stop-opacity:1" />
      <stop offset="100%" style="stop-color:#047857;stop-opacity:1" />
    </linearGradient>
    
    <linearGradient id="beakGradient" x1="0%" y1="0%" x2="100%" y2="100%">
      <stop offset="0%" style="stop-color:#374151;stop-opacity:1" />
      <stop offset="100%" style="stop-color:#111827;stop-opacity:1" />
    </linearGradient>
    
    <radialGradient id="eyeGradient" cx="50%" cy="50%" r="50%">
      <stop offset="0%" style="stop-color:#06B6D4;stop-opacity:1" />
      <stop offset="70%" style="stop-color:#0891B2;stop-opacity:1" />
      <stop offset="100%" style="stop-color:#0E7490;stop-opacity:1" />
    </radialGradient>
  </defs>
  
  <!-- CROW CENTERED FOR FAVICON -->
  <!-- Left wing -->
  <ellipse cx="18" cy="25" rx="16" ry="8" fill="url(#wingGradient)" transform="rotate(-12 18 25)"/>
  <ellipse cx="16" cy="27" rx="12" ry="5" fill="url(#bodyGradient)" opacity="0.6" transform="rotate(-12 16 27)"/>
  
  <!-- Right wing -->
  <ellipse cx="46" cy="25" rx="16" ry="8" fill="url(#wingGradient)" transform="rotate(12 46 25)"/>
  <ellipse cx="48" cy="27" rx="12" ry="5" fill="url(#bodyGradient)" opacity="0.6" transform="rotate(12 48 27)"/>
  
  <!-- Crow head -->
  <circle cx="32" cy="20" r="8" fill="url(#bodyGradient)"/>
  
  <!-- Crow body -->
  <ellipse cx="32" cy="35" rx="6" ry="14" fill="url(#bodyGradient)"/>
  
  <!-- Neck connecting head to body -->
  <ellipse cx="32" cy="27" rx="4" ry="4" fill="url(#bodyGradient)"/>
  
  <!-- Crow beak -->
  <polygon points="26,18 19,20 26,22" fill="url(#beakGradient)"/>
  
  <!-- Crow eye -->
  <circle cx="29" cy="18" r="1.8" fill="url(#eyeGradient)"/>
  <circle cx="29" cy="18" r="1.1" fill="#111827"/>
  <circle cx="29.4" cy="17.6" r="0.5" fill="#FFFFFF"/>
  
  <!-- Wing connection details to body -->
  <ellipse cx="26" cy="30" rx="2.5" ry="3" fill="url(#wingGradient)" transform="rotate(-12 26 30)"/>
  <ellipse cx="38" cy="30" rx="2.5" ry="3" fill="url(#wingGradient)" transform="rotate(12 38 30)"/>
  
  <!-- Tail feathers - tapering into body -->
  <ellipse cx="32" cy="55" rx="4" ry="18" fill="url(#wingGradient)"/>
  <ellipse cx="29" cy="53" rx="2.5" ry="12" fill="url(#bodyGradient)" opacity="0.8" transform="rotate(-12 29 53)"/>
  <ellipse cx="35" cy="53" rx="2.5" ry="12" fill="url(#bodyGradient)" opacity="0.8" transform="rotate(12 35 53)"/>
  
  <!-- Crow feet -->
  <g transform="translate(29, 51)">
    <line x1="0" y1="0" x2="-1.5" y2="2.5" stroke="#0891B2" stroke-width="1.2" stroke-linecap="round"/>
    <line x1="0" y1="0" x2="0" y2="3" stroke="#0891B2" stroke-width="1.2" stroke-linecap="round"/>
    <line x1="0" y1="0" x2="1.5" y2="2.5" stroke="#0891B2" stroke-width="1.2" stroke-linecap="round"/>
  </g>
  
  <g transform="translate(35, 51)">
    <line x1="0" y1="0" x2="-1.5" y2="2.5" stroke="#0891B2" stroke-width="1.2" stroke-linecap="round"/>
    <line x1="0" y1="0" x2="0" y2="3" stroke="#0891B2" stroke-width="1.2" stroke-linecap="round"/>
    <line x1="0" y1="0" x2="1.5" y2="2.5" stroke="#0891B2" stroke-width="1.2" stroke-linecap="round"/>
  </g>
  
  <!-- Motion lines showing flight - vertical wing beats -->
  <g opacity="0.3" stroke="url(#wingGradient)" stroke-width="1.5" stroke-linecap="round" fill="none">
    <path d="M15,30 Q17,34 15,38" />
    <path d="M12,31 Q14,35 12,39" />
    <path d="M49,30 Q47,34 49,38" />
    <path d="M52,31 Q50,35 52,39" />
    <path d="M24,32 Q26,36 24,40" />
    <path d="M40,32 Q38,36 40,40" />
  </g>
  
  <!-- Wing feather details -->
  <g opacity="0.4">
    <ellipse cx="12" cy="18" rx="3" ry="1.5" fill="#FFFFFF" transform="rotate(-15 12 18)"/>
    <ellipse cx="16" cy="21" rx="2.5" ry="1.2" fill="#FFFFFF" transform="rotate(-8 16 21)"/>
    <ellipse cx="18" cy="24" rx="2.2" ry="1" fill="url(#wingGradient)" transform="rotate(-20 18 24)"/>
    
    <ellipse cx="52" cy="18" rx="3" ry="1.5" fill="#FFFFFF" transform="rotate(15 52 18)"/>
    <ellipse cx="48" cy="21" rx="2.5" ry="1.2" fill="#FFFFFF" transform="rotate(8 48 21)"/>
    <ellipse cx="46" cy="24" rx="2.2" ry="1" fill="url(#wingGradient)" transform="rotate(20 46 24)"/>
    
    <!-- Additional wing feathers -->
    <ellipse cx="8" cy="22" rx="2" ry="1" fill="url(#wingGradient)" transform="rotate(-25 8 22)"/>
    <ellipse cx="56" cy="22" rx="2" ry="1" fill="url(#wingGradient)" transform="rotate(25 56 22)"/>
    <ellipse cx="21" cy="19" rx="1.5" ry="0.8" fill="#FFFFFF" transform="rotate(-10 21 19)"/>
    <ellipse cx="43" cy="19" rx="1.5" ry="0.8" fill="#FFFFFF" transform="rotate(10 43 19)"/>
  </g>
</svg>
